# File created by Blade
# Date/Time:  Tue Sep 28 14:35:47 2010
#---------------------------------------------------------
:version 1.10
:name HOM
:units
  mass 1.0
  length 1.000000
  angle deg
:documentation
     Acclaim Skeleton File
:root
   axis xyz
   order TX TY TZ RX RY RZ
   position 0.000000 0.000000 0.000000
   orientation 0 0 0
:bonedata
   begin
      id 1
      name LeftUpLeg_dum
      direction 1.000000 0.000000 0.000000
      length 3.677894
      axis 0.0 0.0 0.0 xyz
   end
   begin
      id 2
      name RightUpLeg_dum
      direction -1.000000 0.000000 0.000000
      length 3.677894
      axis 0.0 0.0 0.0 xyz
   end
   begin
      id 3
      name Spine_dum
      direction 0.000000 1.000000 0.000000
      length 0.039370
      axis 0.0 0.0 0.0 xyz
   end
   begin
      id 4
      name LeftUpLeg
      direction 0.000000 -1.000000 0.000000
      length 18.389491
      axis 0.0 0.0 0.0 xyz
      dof rx ry rz
   end
   begin
      id 5
      name LeftLeg
      direction 0.000000 -1.000000 0.000000
      length 16.918313
      axis 0.0 0.0 0.0 xyz
      dof rx ry rz
   end
   begin
      id 6
      name LeftFoot
      direction 0.000000 -0.258819 0.965926
      length 6.436326
      axis 15.0 0.0 0.0 xyz
      dof rx ry rz
   end
   begin
      id 7
      name LeftToeBase
      direction 0.000000 0.000000 1.000000
      length 2.952750
      axis 0.0 0.0 0.0 xyz
      dof rx ry rz
   end
   begin
      id 8
      name RightUpLeg
      direction 0.000000 -1.000000 0.000000
      length 18.389491
      axis 0.0 0.0 0.0 xyz
      dof rx ry rz
   end
   begin
      id 9
      name RightLeg
      direction 0.000000 -1.000000 0.000000
      length 16.918313
      axis 0.0 0.0 0.0 xyz
      dof rx ry rz
   end
   begin
      id 10
      name RightFoot
      direction 0.000000 -0.258819 0.965926
      length 6.436326
      axis 15.0 0.0 0.0 xyz
      dof rx ry rz
   end
   begin
      id 11
      name RightToeBase
      direction 0.000000 0.000000 1.000000
      length 2.952750
      axis 0.0 0.0 0.0 xyz
      dof rx ry rz
   end
   begin
      id 12
      name Spine
      direction 0.000000 1.000000 0.000000
      length 9.194745
      axis 0.0 0.0 0.0 xyz
      dof rx ry rz
   end
   begin
      id 13
      name Spine1
      direction 0.000000 1.000000 0.000000
      length 0.000000
      axis 0.0 0.0 0.0 xyz
      dof rx ry rz
   end
   begin
      id 14
      name Spine1_dum1
      direction 0.000000 1.000000 0.000000
      length 9.194745
      axis 0.0 0.0 0.0 xyz
   end
   begin
      id 15
      name Spine1_dum2
      direction 0.000000 1.000000 0.000000
      length 9.194745
      axis 0.0 0.0 0.0 xyz
   end
   begin
      id 16
      name Spine1_dum3
      direction 0.000000 1.000000 0.000000
      length 9.194745
      axis 0.0 0.0 0.0 xyz
   end
   begin
      id 17
      name Neck
      direction 0.000000 1.000000 0.000000
      length 4.229598
      axis 0.0 0.0 0.0 xyz
      dof rx ry rz
   end
   begin
      id 18
      name Head
      direction 0.000000 1.000000 0.000000
      length 4.527550
      axis 0.0 0.0 0.0 xyz
      dof rx ry rz
   end
   begin
      id 19
      name LeftShoulder
      direction 1.000000 -0.000004 0.000000
      length 5.516839
      axis 0.0 0.0 -90.0 xyz
      dof rx ry rz
   end
   begin
      id 20
      name LeftArm
      direction 1.000000 -0.000004 0.000000
      length 11.033679
      axis 0.0 0.0 -90.0 xyz
      dof rx ry rz
   end
   begin
      id 21
      name LeftForeArm
      direction 1.000000 -0.000004 0.000000
      length 10.114232
      axis 0.0 0.0 -90.0 xyz
      dof rx ry rz
   end
   begin
      id 22
      name LeftHand
      direction 0.000000 0.000000 0.000000
      length 0.000000
      axis 0.0 0.0 -90.0 xyz
      dof rx ry rz
   end
   begin
      id 23
      name LeftHand_dum1
      direction 0.000000 0.000000 0.000000
      length 0.000000
      axis 0.0 0.0 -90.0 xyz
   end
   begin
      id 24
      name LeftHand_dum2
      direction 1.000000 -0.000004 0.000000
      length 3.937000
      axis 0.0 0.0 -90.0 xyz
   end
   begin
      id 25
      name LeftHandThumb
      direction 0.000000 0.000000 1.000000
      length 3.937000
      axis 0.0 0.0 -90.0 xyz
      dof rx ry rz
   end
   begin
      id 26
      name RightShoulder
      direction -1.000000 -0.000004 0.000000
      length 5.516839
      axis 0.0 0.0 90.0 xyz
      dof rx ry rz
   end
   begin
      id 27
      name RightArm
      direction -1.000000 -0.000004 0.000000
      length 11.033679
      axis 0.0 0.0 90.0 xyz
      dof rx ry rz
   end
   begin
      id 28
      name RightForeArm
      direction -1.000000 -0.000004 0.000000
      length 10.114232
      axis 0.0 0.0 90.0 xyz
      dof rx ry rz
   end
   begin
      id 29
      name RightHand
      direction 0.000000 0.000000 0.000000
      length 0.000000
      axis 0.0 0.0 90.0 xyz
      dof rx ry rz
   end
   begin
      id 30
      name RightHand_dum1
      direction 0.000000 0.000000 0.000000
      length 0.000000
      axis 0.0 0.0 90.0 xyz
   end
   begin
      id 31
      name RightHand_dum2
      direction -1.000000 -0.000004 0.000000
      length 5.393690
      axis 0.0 0.0 90.0 xyz
   end
   begin
      id 32
      name RightHandThumb
      direction 0.000000 0.000000 1.000000
      length 3.937000
      axis 0.0 0.0 90.0 xyz
      dof rx ry rz
   end
:hierarchy
   begin
      root LeftUpLeg_dum RightUpLeg_dum Spine_dum
      LeftUpLeg_dum LeftUpLeg
      RightUpLeg_dum RightUpLeg
      Spine_dum Spine
      LeftUpLeg LeftLeg
      LeftLeg LeftFoot
      LeftFoot LeftToeBase
      RightUpLeg RightLeg
      RightLeg RightFoot
      RightFoot RightToeBase
      Spine Spine1
      Spine1 Spine1_dum1 Spine1_dum2 Spine1_dum3
      Spine1_dum1 Neck
      Spine1_dum2 LeftShoulder
      Spine1_dum3 RightShoulder
      Neck Head
      LeftShoulder LeftArm
      LeftArm LeftForeArm
      LeftForeArm LeftHand
      LeftHand LeftHand_dum1 LeftHand_dum2
      LeftHand_dum1 LeftHandThumb
      RightShoulder RightArm
      RightArm RightForeArm
      RightForeArm RightHand
      RightHand RightHand_dum1 RightHand_dum2
      RightHand_dum1 RightHandThumb
   end

# File created by Blade
# Date/Time:  Tue Sep 28 14:35:42 2010
# Frame Rate: 200.000 fps
#------------------------------------------------------
:FULLY-SPECIFIED
:DEGREES
361
root  1.396915 37.058604 -50.810234 9.357325 6.770701 -7.392021
LeftUpLeg  -5.110802 3.973534 5.384083
LeftLeg  18.535459 -0.000000 0.000000
LeftFoot  -9.984550 8.793835 9.629079
LeftToeBase  -12.314189 0.000000 -0.000000
RightUpLeg  -34.301625 -26.133761 18.323654
RightLeg  10.935239 -0.000000 0.000000
RightFoot  -0.577964 5.284513 -8.406113
RightToeBase  -9.679811 0.000000 -0.000000
Spine  -13.608451 -5.645347 0.799335
Spine1  15.821691 -4.559035 9.550231
Neck  4.361539 1.201182 -8.063064
Head  -12.269467 1.153006 2.938372
LeftShoulder  -2.685099 -12.193950 -28.099855
LeftArm  7.599361 39.635658 -31.962636
LeftForeArm  45.694388 -0.000000 0.000000
LeftHand  8.894747 -9.833466 4.536264
LeftHandThumb  0.000000 -0.000000 0.000000
RightShoulder  1.525826 6.499618 23.123786
RightArm  -3.342610 -44.436180 39.809837
RightForeArm  26.820526 -0.000000 0.000000
RightHand  5.110316 7.551883 0.428194
RightHandThumb  0.000000 -0.000000 0.000000
362
root  1.371125 37.018585 -50.613413 9.348930 6.818369 -7.421908
LeftUpLeg  -4.987754 4.072656 5.498253
LeftLeg  18.913629 -0.000000 0.000000
LeftFoot  -10.273897 8.840509 9.658394
LeftToeBase  -12.344685 0.000000 -0.000000
RightUpLeg  -34.328419 -26.059598 18.534403
RightLeg  10.238229 -0.000000 0.000000
RightFoot  -1.024411 5.275221 -7.849545
RightToeBase  -9.137542 0.000000 -0.000000
Spine  -13.589280 -5.647264 0.817795
Spine1  15.785419 -4.562756 9.576282
Neck  4.411584 1.155808 -8.056340
Head  -12.195706 1.178809 2.921301
LeftShoulder  -2.680289 -12.099153 -28.158160
LeftArm  7.647029 39.617141 -31.895945
LeftForeArm  45.485187 -0.000000 0.000000
LeftHand  8.917171 -9.835023 4.490409
LeftHandThumb  0.000000 -0.000000 0.000000
RightShoulder  1.491436 6.390938 23.096093
RightArm  -3.231815 -44.107756 39.774587
RightForeArm  26.951948 -0.000000 0.000000
RightHand  5.036940 7.525442 0.264359
RightHandThumb  0.000000 -0.000000 0.000000
363
root  1.345536 36.982106 -50.440256 9.341145 6.862048 -7.448063
LeftUpLeg  -4.883651 4.198621 5.604855
LeftLeg  19.213882 -0.000000 0.000000
LeftFoot  -10.432621 8.881585 9.754030
LeftToeBase  -12.640512 0.000000 -0.000000
RightUpLeg  -34.347644 -25.839426 18.653787
RightLeg  9.536525 -0.000000 0.000000
RightFoot  -1.060108 5.285166 -7.043638
RightToeBase  -9.503992 0.000000 -0.000000
Spine  -13.528004 -5.643270 0.831427
Spine1  15.842550 -4.569509 9.598825
Neck  4.397589 1.128729 -8.033638
Head  -12.287240 1.179874 2.918792
LeftShoulder  -2.628857 -12.134421 -28.222294
LeftArm  7.683880 39.664806 -31.838639
LeftForeArm  45.259060 -0.000000 0.000000
LeftHand  8.891270 -9.835661 4.574371
LeftHandThumb  0.000000 -0.000000 0.000000
RightShoulder  1.529508 6.514765 23.095113
RightArm  -3.205112 -43.963846 39.778833
RightForeArm  26.998799 -0.000000 0.000000
RightHand  5.133419 7.948306 0.205004
RightHandThumb  0.000000 -0.000000 0.000000
364
root  1.314492 36.943596 -50.238341 9.329818 6.890219 -7.482084
LeftUpLeg  -4.772869 4.319620 5.744662
LeftLeg  19.626598 -0.000000 0.000000
LeftFoot  -10.654319 8.852049 9.745031
LeftToeBase  -12.808860 0.000000 -0.000000
RightUpLeg  -34.260183 -25.551266 18.731522
RightLeg  8.838572 -0.000000 0.000000
RightFoot  -1.329442 5.155249 -6.448484
RightToeBase  -9.260847 0.000000 -0.000000
Spine  -13.516155 -5.642867 0.843725
Spine1  15.824101 -4.570507 9.627901
Neck  4.448959 1.098574 -8.026413
Head  -12.244673 1.218572 2.900270
LeftShoulder  -2.629078 -12.053048 -28.273651
LeftArm  7.708322 39.677156 -31.781346
LeftForeArm  45.021528 -0.000000 0.000000
LeftHand  8.845254 -9.463881 4.494662
LeftHandThumb  0.000000 -0.000000 0.000000
RightShoulder  1.510092 6.487554 23.083970
RightArm  -3.144733 -43.694887 39.767151
RightForeArm  27.119021 -0.000000 0.000000
RightHand  5.074015 7.845853 0.121741
RightHandThumb  0.000000 -0.000000 0.000000
365
root  1.288314 36.906547 -50.059100 9.320476 6.926496 -7.512520
LeftUpLeg  -4.650752 4.509010 5.865181
LeftLeg  19.936632 -0.000000 0.000000
LeftFoot  -10.838582 8.829262 9.838409
LeftToeBase  -12.998870 0.000000 -0.000000
RightUpLeg  -34.228820 -25.236727 18.768111
RightLeg  8.228202 -0.000000 0.000000
RightFoot  -1.354936 5.046029 -5.715289
RightToeBase  -9.423830 0.000000 -0.000000
Spine  -13.463651 -5.636944 0.866151
Spine1  15.890855 -4.579095 9.659531
Neck  4.423820 1.084472 -8.041073
Head  -12.336868 1.193440 2.913461
LeftShoulder  -2.578172 -12.114747 -28.334362
LeftArm  7.709674 39.743702 -31.753773
LeftForeArm  44.801969 -0.000000 0.000000
LeftHand  8.791139 -9.405067 4.456737
LeftHandThumb  0.000000 -0.000000 0.000000
RightShoulder  1.531412 6.556055 23.081347
RightArm  -3.048764 -43.388170 39.721669
RightForeArm  27.214603 -0.000000 0.000000
RightHand  5.100528 8.289828 0.166272
RightHandThumb  0.000000 -0.000000 0.000000
366
root  1.255995 36.864793 -49.854493 9.302821 6.960645 -7.555042
LeftUpLeg  -4.516669 4.552002 6.004476
LeftLeg  20.317538 -0.000000 0.000000
LeftFoot  -11.088260 8.895509 9.766976
LeftToeBase  -13.045000 0.000000 -0.000000
RightUpLeg  -34.155742 -24.937860 18.794346
RightLeg  7.683473 -0.000000 0.000000
RightFoot  -1.593021 4.799094 -5.059403
RightToeBase  -9.238374 0.000000 -0.000000
Spine  -13.460031 -5.639945 0.883305
Spine1  15.868838 -4.584270 9.696472
Neck  4.487753 1.053927 -8.028781
Head  -12.244979 1.230640 2.901972
LeftShoulder  -2.586252 -12.012393 -28.379893
LeftArm  7.712835 39.758066 -31.720821
LeftForeArm  44.591556 -0.000000 0.000000
LeftHand  8.678157 -9.357572 4.470680
LeftHandThumb  0.000000 -0.000000 0.000000
RightShoulder  1.503384 6.493171 23.070333
RightArm  -2.973465 -43.105712 39.693410
RightForeArm  27.335574 -0.000000 0.000000
RightHand  5.117812 8.291410 -0.090855
RightHandThumb  0.000000 -0.000000 0.000000
367
root  1.228940 36.827723 -49.668966 9.282936 6.991299 -7.586869
LeftUpLeg  -4.398090 4.766658 6.133091
LeftLeg  20.661009 -0.000000 0.000000
LeftFoot  -11.212892 8.887761 9.928162
LeftToeBase  -13.358216 0.000000 -0.000000
RightUpLeg  -34.085448 -24.510229 18.750671
RightLeg  7.180673 -0.000000 0.000000
RightFoot  -1.548435 4.531805 -4.559877
RightToeBase  -9.523436 0.000000 -0.000000
Spine  -13.416502 -5.635103 0.910252
Spine1  15.938412 -4.595613 9.730828
Neck  4.486024 1.034173 -8.042567
Head  -12.359667 1.225450 2.888791
LeftShoulder  -2.543356 -12.047310 -28.448587
LeftArm  7.705077 39.804487 -31.707412
LeftForeArm  44.321121 -0.000000 0.000000
LeftHand  8.686323 -9.302385 4.424846
LeftHandThumb  0.000000 -0.000000 0.000000
RightShoulder  1.533509 6.617539 23.061852
RightArm  -2.949409 -42.960803 39.680525
RightForeArm  27.443774 -0.000000 0.000000
RightHand  5.260128 8.534309 -0.167545
RightHandThumb  0.000000 -0.000000 0.000000
368
root  1.198021 36.786279 -49.457972 9.256220 7.013381 -7.623939
LeftUpLeg  -4.268384 4.907401 6.272543
LeftLeg  21.098419 -0.000000 0.000000
LeftFoot  -11.404324 8.914073 9.946319
LeftToeBase  -13.590624 0.000000 -0.000000
RightUpLeg  -33.999454 -24.155562 18.710377
RightLeg  6.803461 -0.000000 0.000000
RightFoot  -1.798359 4.194800 -4.107509
RightToeBase  -9.377064 0.000000 -0.000000
Spine  -13.421138 -5.645987 0.933090
Spine1  15.933472 -4.612333 9.762021
Neck  4.556244 0.999513 -8.049296
Head  -12.290855 1.248621 2.881842
LeftShoulder  -2.559644 -11.913324 -28.507104
LeftArm  7.712599 39.782355 -31.678405
LeftForeArm  44.065926 -0.000000 0.000000
LeftHand  8.609859 -9.056189 4.300097
LeftHandThumb  0.000000 -0.000000 0.000000
RightShoulder  1.484015 6.516857 23.039723
RightArm  -2.827646 -42.560187 39.616379
RightForeArm  27.656380 -0.000000 0.000000
RightHand  5.158569 8.629994 -0.273762
RightHandThumb  0.000000 -0.000000 0.000000
369
root  1.170291 36.746736 -49.276717 9.234148 7.040853 -7.645606
LeftUpLeg  -4.161552 5.042863 6.390014
LeftLeg  21.449770 -0.000000 0.000000
LeftFoot  -11.499210 8.964798 10.099059
LeftToeBase  -13.921008 0.000000 -0.000000
RightUpLeg  -33.984626 -23.811206 18.682647
RightLeg  6.481963 -0.000000 0.000000
RightFoot  -1.751119 4.009395 -3.581055
RightToeBase  -9.796528 0.000000 -0.000000
Spine  -13.363870 -5.638533 0.959242
Spine1  16.021914 -4.623314 9.789527
Neck  4.508892 1.017034 -8.051619
Head  -12.453880 1.249697 2.861399
LeftShoulder  -2.509887 -11.977527 -28.564995
LeftArm  7.693267 39.864038 -31.661410
LeftForeArm  43.797864 -0.000000 0.000000
LeftHand  8.640635 -9.204357 4.332922
LeftHandThumb  0.000000 -0.000000 0.000000
RightShoulder  1.521584 6.646929 23.020863
RightArm  -2.760628 -42.326154 39.575289
RightForeArm  27.808480 -0.000000 0.000000
RightHand  5.269605 8.664829 -0.292479
RightHandThumb  0.000000 -0.000000 0.000000
370
root  1.139558 36.704480 -49.063253 9.200823 7.054974 -7.682882
LeftUpLeg  -4.023024 5.121225 6.534904
LeftLeg  21.897083 -0.000000 0.000000
LeftFoot  -11.696275 8.984825 10.005613
LeftToeBase  -14.042069 0.000000 -0.000000
RightUpLeg  -33.916584 -23.468813 18.634278
RightLeg  6.265207 -0.000000 0.000000
RightFoot  -1.942149 3.705160 -3.162235
RightToeBase  -9.648591 0.000000 -0.000000
Spine  -13.374633 -5.643688 0.985426
Spine1  16.016102 -4.635424 9.822182
Neck  4.573094 0.998891 -8.075293
Head  -12.263627 1.248147 2.881356
LeftShoulder  -2.538880 -11.817095 -28.628159
LeftArm  7.693133 39.803830 -31.657043
LeftForeArm  43.548476 -0.000000 0.000000
LeftHand  8.534031 -9.044027 4.286016
LeftHandThumb  0.000000 -0.000000 0.000000
RightShoulder  1.487662 6.584981 23.000339
RightArm  -2.698518 -42.043938 39.537442
RightForeArm  27.997014 -0.000000 0.000000
RightHand  5.312809 9.102184 -0.409616
RightHandThumb  0.000000 -0.000000 0.000000
371
root  1.112457 36.666009 -48.871651 9.173921 7.074871 -7.698713
LeftUpLeg  -3.912480 5.308462 6.646426
LeftLeg  22.279001 -0.000000 0.000000
LeftFoot  -11.698430 9.090275 10.306423
LeftToeBase  -14.605775 0.000000 -0.000000
RightUpLeg  -33.916702 -23.160771 18.614748
RightLeg  6.107605 -0.000000 0.000000
RightFoot  -1.863065 3.472265 -3.037346
RightToeBase  -10.213242 0.000000 -0.000000
Spine  -13.326133 -5.643321 1.016834
Spine1  16.100251 -4.654626 9.847466
Neck  4.557887 1.005485 -8.096752
Head  -12.455658 1.262127 2.846995
LeftShoulder  -2.512767 -11.817358 -28.694834
LeftArm  7.669435 39.828254 -31.662755
LeftForeArm  43.293324 -0.000000 0.000000
LeftHand  8.506782 -9.045531 4.269850
LeftHandThumb  0.000000 -0.000000 0.000000
RightShoulder  1.497717 6.641661 22.978052
RightArm  -2.584417 -41.703623 39.462279
RightForeArm  28.208961 -0.000000 0.000000
RightHand  5.368169 9.285134 -0.392398
RightHandThumb  0.000000 -0.000000 0.000000
